# xmcd CD database file
#
# Track frame offsets:
#	150
#	28123
#	67480
#	92894
#	115179
#	161735
#	181065
#	189086
#	214333
#
# Disc length: 3352 seconds
#
# Revision: 0
# Processed by: cddbd v1.5.2PL0 Copyright (c) Steve Scherf et al.
# Submitted via: CDex 1.51
#
DISCID=7f0d1609
DTITLE=Kate Williams Trio and Quartet - Sycamore Song
DYEAR=1999
DGENRE=Jazz
TTITLE0=Crocodile Tears
TTITLE1=In Your Mind's Eye
TTITLE2=You Don't Know What Love Is
TTITLE3=Sycamore Song
TTITLE4=From Day To Day
TTITLE5=It's You Or No One
TTITLE6=Interlude
TTITLE7=Lennie's Pennies
TTITLE8=Penumbra
EXTD=YEAR: 1999
EXTT0=
EXTT1=
EXTT2=
EXTT3=
EXTT4=
EXTT5=
EXTT6=
EXTT7=
EXTT8=
PLAYORDER=
